# xmcd
#
# Track frame offsets:
#	150
#	4399
#	22936
#	40328
#	55251
#	71885
#	92825
#	101642
#	122432
#	146767
#	161733
#	182676
#	200625
#	218281
#	234369
#	253396
#	271763
#
# Disc length: 3909 seconds
# Revision: 0
# Processed by: cddbd v1.5.2PL0 Copyright (c) Steve Scherf et al.
# Submitted via: dBpowerAMP V12.0
#
DISCID=f10f4311
DTITLE=J-Mac - Boss Hoggin
DYEAR=1998
DGENRE=Midwest/Down South Rap
TTITLE0=Intro
TTITLE1=Let The Dawgs Out
TTITLE2=Listen to My Tek
TTITLE3=Movin Up ft.C.Murphy
TTITLE4=Bo$$ Hoggin
TTITLE5=No Love ft. Lil Vicent
TTITLE6=Lac Ridin
TTITLE7=187 Waltz
TTITLE8=Clickin Up ft.Ska Face Al Kapone
TTITLE9=Southern Pro's
TTITLE10=Confession ft.Family THugs
TTITLE11=Give It To Me Raw
TTITLE12=314
TTITLE13=Boss Hoggin ft.Big Dank
TTITLE14=F#@! Friends
TTITLE15=Kompound II ft.Big Dank,Moneygreen,Black
TTITLE16=Dedications
EXTD=
EXTT0=
EXTT1=
EXTT2=
EXTT3=
EXTT4=
EXTT5=
EXTT6=
EXTT7=
EXTT8=
EXTT9=
EXTT10=
EXTT11=
EXTT12=
EXTT13=
EXTT14=
EXTT15=
EXTT16=
PLAYORDER=
